<svg width="35" height="28" viewBox="0 0 35 28" fill="none" xmlns="http://www.w3.org/2000/svg">
<g id="Group 1">
<g id="vuesax/linear/arrow-left">
<g id="arrow-left">
<path id="Vector" d="M22.833 26.3333C29.1843 26.3333 34.333 20.9608 34.333 14.3333C34.333 7.70593 29.1843 2.33334 22.833 2.33334C16.4817 2.33334 11.333 7.70593 11.333 14.3333C11.333 20.9608 16.4817 26.3333 22.833 26.3333Z" fill="#FCD2C5" fill-opacity="0.2"/>
<path id="Vector_2" d="M14.6667 25.6667C21.11 25.6667 26.3333 20.4433 26.3333 14C26.3333 7.55669 21.11 2.33334 14.6667 2.33334C8.22334 2.33334 3 7.55669 3 14C3 20.4433 8.22334 25.6667 14.6667 25.6667Z" stroke="white" stroke-width="1.5" stroke-linecap="round" stroke-linejoin="round"/>
<path id="Vector_3" d="M18.75 14H11.75" stroke="white" stroke-width="1.5" stroke-linecap="round" stroke-linejoin="round"/>
<path id="Vector_4" d="M14.083 10.5L10.583 14L14.083 17.5" stroke="white" stroke-width="1.5" stroke-linecap="round" stroke-linejoin="round"/>
</g>
</g>
</g>
</svg>
