<svg xmlns="http://www.w3.org/2000/svg" xmlns:xlink="http://www.w3.org/1999/xlink" width="613" height="391" viewBox="0 0 613 391" fill="none">
  <path d="M1 34C1 15.7746 15.7746 1 34 1H217.811C223.741 1 229.023 4.74983 230.979 10.3485C233.215 16.7498 239.255 21.0373 246.035 21.0373H309.846H373.657C380.438 21.0373 386.477 16.7498 388.713 10.3485C390.669 4.74983 395.951 1 401.882 1H578.692C596.918 1 611.692 15.7746 611.692 34V356.728C611.692 374.953 596.918 389.728 578.692 389.728H34.0001C15.7747 389.728 1 374.953 1 356.728V34Z" fill="url(#pattern0_3566_12699)" stroke="url(#paint0_linear_3566_12699)" stroke-width="2"/>
  <defs>
    <pattern id="pattern0_3566_12699" patternContentUnits="objectBoundingBox" width="1" height="1">
      <use xlink:href="#image0_3566_12699" transform="matrix(0.000833333 0 0 0.00130673 0 -0.28404)"/>
    </pattern>
    <linearGradient id="paint0_linear_3566_12699" x1="306.346" y1="0" x2="306.346" y2="390.728" gradientUnits="userSpaceOnUse">
      <stop stop-color="#F5683C"/>
      <stop offset="1" stop-color="#F5683C" stop-opacity="0"/>
    </linearGradient>
  </defs>
</svg>
